<?xml version="1.0" encoding="UTF-8"?>
<svg xmlns="http://www.w3.org/2000/svg" x="0px" y="0px" width="100" height="100" viewBox="0,0,256,256">
<g fill="none" fill-rule="nonzero" stroke="none" stroke-width="1" stroke-linecap="butt" stroke-linejoin="miter" stroke-miterlimit="10" stroke-dasharray="" stroke-dashoffset="0" font-family="none" font-weight="none" font-size="none" text-anchor="none" style="mix-blend-mode: normal"><g transform="scale(2.56,2.56)"><circle cx="73" cy="7" r="1" fill="#2a19f1"></circle><circle cx="51" cy="51" r="37" fill="#e9e9f3"></circle><circle cx="79" cy="9" r="4" fill="#2a19f1"></circle><circle cx="83" cy="18" r="2" fill="#080cef"></circle><circle cx="65" cy="77" r="2" fill="#fbcd59"></circle><circle cx="11" cy="57" r="4" fill="#fbcd59"></circle><circle cx="21" cy="81" r="2" fill="#080cef"></circle><circle cx="14.5" cy="45.5" r="2.5" fill="#ffffff"></circle><circle cx="79.5" cy="34.5" r="1.5" fill="#ffffff"></circle><path d="M29.362,72.794l-1.492,-43.272c-0.091,-2.652 2.07,-4.833 4.723,-4.765l38.706,0.99c1.951,0.05 3.525,1.612 3.59,3.563l1.242,37.428c0.061,1.837 -1.24,3.438 -3.051,3.754l-38.322,6.683c-2.755,0.48 -5.3,-1.585 -5.396,-4.381z" fill="#332ad8"></path><path d="M34.534,76.76l-2.686,-2.823l-1.02,-45.53l2.471,-3.53l-2.373,0.216l-2.764,2.765l1.343,46.079l1.676,2.559l2.736,0.617z" fill="#cbc9bc"></path><path d="M47.119,39.165l0.787,19.673c0.03,0.738 0.873,1.143 1.468,0.705l14.952,-11.017c0.542,-0.399 0.487,-1.225 -0.103,-1.549l-15.739,-8.656c-0.628,-0.346 -1.393,0.128 -1.365,0.844z" fill="#fb0910"></path><path d="M75.588,29.286c-0.076,-2.317 -1.952,-4.18 -4.271,-4.239l-36.275,-0.928c-0.094,-0.033 -0.195,-0.051 -0.304,-0.04c-0.051,0.005 -0.096,0.022 -0.146,0.028l-1.98,-0.051c-1.47,-0.031 -2.865,0.521 -3.905,1.57c-1.041,1.05 -1.586,2.441 -1.535,3.92l1.492,43.271c0.053,1.535 0.767,2.971 1.96,3.938c0.953,0.773 2.136,1.187 3.345,1.187c0.304,0 0.608,-0.026 0.912,-0.079l38.319,-6.682c2.143,-0.373 3.703,-2.293 3.63,-4.467zM30.061,72.77l-1.492,-43.271c-0.037,-1.088 0.364,-2.112 1.131,-2.886c0.524,-0.529 1.156,-0.878 1.859,-1.042c-1.04,1.011 -1.677,2.424 -1.624,3.977l1.492,43.271c0.048,1.4 0.631,2.672 1.581,3.603c-0.544,-0.138 -1.058,-0.39 -1.503,-0.751c-0.879,-0.714 -1.405,-1.771 -1.444,-2.901zM72.96,69.802l-37.49,6.538c-0.007,-0.002 -0.011,-0.008 -0.017,-0.01c-1.54,-0.535 -2.571,-1.933 -2.628,-3.561l-1.492,-43.271c-0.069,-1.998 1.388,-3.705 3.342,-3.987l36.606,0.937c1.578,0.04 2.855,1.308 2.908,2.886l1.242,37.428c0.049,1.478 -1.013,2.786 -2.471,3.04z" fill="#fffafa"></path><path d="M48.828,59.974c-0.173,0 -0.347,-0.038 -0.509,-0.115c-0.392,-0.188 -0.646,-0.575 -0.663,-1.01l-0.787,-19.674v0c-0.017,-0.428 0.19,-0.817 0.555,-1.043c0.364,-0.223 0.806,-0.236 1.181,-0.029l15.738,8.656c0.353,0.193 0.579,0.549 0.605,0.949c0.026,0.4 -0.151,0.782 -0.475,1.02l-14.951,11.017c-0.205,0.151 -0.449,0.229 -0.694,0.229zM47.369,39.155l0.787,19.674c0.01,0.252 0.152,0.469 0.38,0.578c0.229,0.111 0.485,0.086 0.689,-0.064l14.951,-11.018c0.188,-0.139 0.287,-0.352 0.272,-0.584c-0.016,-0.233 -0.142,-0.432 -0.347,-0.545l-15.737,-8.656c-0.215,-0.117 -0.469,-0.111 -0.678,0.018c-0.207,0.129 -0.327,0.352 -0.317,0.597z" fill="#fffafa"></path><path d="M47.876,62.836c-0.315,0 -0.633,-0.072 -0.933,-0.221c-0.706,-0.349 -1.142,-1.026 -1.166,-1.813l-0.127,-4.195c-0.004,-0.139 0.104,-0.254 0.242,-0.258c0.003,0 0.006,0 0.008,0c0.135,0 0.246,0.107 0.25,0.242l0.127,4.195c0.019,0.6 0.35,1.115 0.888,1.381c0.537,0.265 1.151,0.216 1.637,-0.136l4.007,-2.886c0.113,-0.08 0.269,-0.056 0.35,0.057c0.08,0.112 0.055,0.269 -0.057,0.35l-4.008,2.886c-0.368,0.264 -0.791,0.398 -1.218,0.398z" fill="#fffafa"></path><path d="M45.83,54.513c-0.135,0 -0.246,-0.107 -0.25,-0.242l-0.284,-9.355c-0.004,-0.139 0.104,-0.254 0.242,-0.258c0.003,0 0.006,0 0.008,0c0.135,0 0.246,0.107 0.25,0.242l0.284,9.355c0.004,0.139 -0.104,0.254 -0.242,0.258c-0.003,0 -0.006,0 -0.008,0z" fill="#fffafa"></path><g fill="#fffafa"><path d="M45.47,42.643c-0.135,0 -0.246,-0.107 -0.25,-0.242l-0.105,-3.486c-0.004,-0.139 0.104,-0.254 0.242,-0.258c0.003,0 0.006,0 0.008,0c0.135,0 0.246,0.107 0.25,0.242l0.105,3.486c0.004,0.139 -0.104,0.254 -0.242,0.258c-0.003,0 -0.006,0 -0.008,0z"></path></g><g fill="#fffafa"><path d="M53.699,38.995c-0.043,0 -0.086,-0.011 -0.125,-0.033l-5.625,-3.245c-0.508,-0.294 -1.109,-0.288 -1.613,0.012c-0.503,0.301 -0.792,0.83 -0.774,1.416c0.004,0.139 -0.104,0.254 -0.242,0.258c-0.003,0 -0.006,0 -0.008,0c-0.135,0 -0.246,-0.107 -0.25,-0.242c-0.023,-0.77 0.357,-1.465 1.019,-1.86c0.66,-0.396 1.453,-0.402 2.119,-0.017l5.625,3.245c0.119,0.069 0.16,0.222 0.092,0.342c-0.048,0.079 -0.132,0.124 -0.218,0.124z"></path></g><g fill="#fffafa"><path d="M61.486,43.487c-0.043,0 -0.086,-0.011 -0.125,-0.033l-5.683,-3.278c-0.119,-0.069 -0.16,-0.222 -0.092,-0.342c0.07,-0.121 0.224,-0.159 0.342,-0.092l5.683,3.278c0.119,0.069 0.16,0.222 0.092,0.342c-0.047,0.08 -0.131,0.125 -0.217,0.125z"></path></g><g fill="#fffafa"><path d="M60.588,54.103c-0.077,0 -0.154,-0.036 -0.203,-0.104c-0.08,-0.112 -0.055,-0.269 0.057,-0.35l6.27,-4.514c0.441,-0.317 0.688,-0.831 0.66,-1.373c-0.028,-0.542 -0.324,-1.028 -0.795,-1.3l-2.901,-1.674c-0.119,-0.069 -0.16,-0.222 -0.092,-0.342c0.069,-0.12 0.225,-0.16 0.342,-0.092l2.901,1.674c0.618,0.357 1.009,0.995 1.045,1.708c0.036,0.713 -0.288,1.388 -0.867,1.805l-6.27,4.514c-0.046,0.032 -0.096,0.048 -0.147,0.048z"></path></g><g fill="#fffafa"><path d="M55.003,58.124c-0.077,0 -0.154,-0.036 -0.203,-0.104c-0.08,-0.112 -0.055,-0.269 0.057,-0.35l3.653,-2.631c0.112,-0.079 0.269,-0.056 0.35,0.057c0.08,0.112 0.055,0.269 -0.057,0.35l-3.653,2.631c-0.046,0.031 -0.096,0.047 -0.147,0.047z"></path></g><g fill="#fffafa"><path d="M73.111,37.495c-0.135,0 -0.246,-0.107 -0.25,-0.243l-0.107,-4.189c-0.004,-0.139 0.105,-0.253 0.243,-0.257c0.003,0 0.005,0 0.007,0c0.135,0 0.246,0.107 0.25,0.243l0.107,4.189c0.004,0.139 -0.105,0.253 -0.243,0.257c-0.003,0 -0.005,0 -0.007,0z"></path></g><g fill="#fffafa"><path d="M66.36,28.406c-0.002,0 -0.004,0 -0.006,0l-4.884,-0.122c-0.139,-0.004 -0.247,-0.118 -0.244,-0.256c0.004,-0.139 0.125,-0.261 0.256,-0.244l4.884,0.122c0.139,0.004 0.247,0.118 0.244,0.256c-0.004,0.137 -0.114,0.244 -0.25,0.244z"></path></g><g fill="#fffafa"><path d="M72.958,31.54c-0.134,0 -0.244,-0.105 -0.25,-0.24l-0.084,-2.088c-0.007,-0.367 -0.294,-0.656 -0.654,-0.665l-4.028,-0.102c-0.139,-0.004 -0.247,-0.118 -0.244,-0.256c0.004,-0.137 0.114,-0.244 0.25,-0.244c0.002,0 0.004,0 0.006,0l4.028,0.102c0.63,0.015 1.131,0.521 1.143,1.15l0.084,2.083c0.005,0.138 -0.102,0.254 -0.24,0.26c-0.004,0 -0.008,0 -0.011,0z"></path></g></g></g>
</svg>